<svg id="visual" viewBox="0 0 700 1200" width="700" height="1200" xmlns="http://www.w3.org/2000/svg" xmlns:xlink="http://www.w3.org/1999/xlink" version="1.1"><rect x="0" y="0" width="700" height="1200" fill="#ffffff"></rect><defs><linearGradient id="grad1_0" x1="0%" y1="100%" x2="100%" y2="0%"><stop offset="30%" stop-color="#00946c" stop-opacity="1"></stop><stop offset="70%" stop-color="#00946c" stop-opacity="1"></stop></linearGradient></defs><defs><linearGradient id="grad1_1" x1="0%" y1="100%" x2="100%" y2="0%"><stop offset="30%" stop-color="#00946c" stop-opacity="1"></stop><stop offset="70%" stop-color="#51aa88" stop-opacity="1"></stop></linearGradient></defs><defs><linearGradient id="grad1_2" x1="0%" y1="100%" x2="100%" y2="0%"><stop offset="30%" stop-color="#80bfa4" stop-opacity="1"></stop><stop offset="70%" stop-color="#51aa88" stop-opacity="1"></stop></linearGradient></defs><defs><linearGradient id="grad1_3" x1="0%" y1="100%" x2="100%" y2="0%"><stop offset="30%" stop-color="#80bfa4" stop-opacity="1"></stop><stop offset="70%" stop-color="#abd4c2" stop-opacity="1"></stop></linearGradient></defs><defs><linearGradient id="grad1_4" x1="0%" y1="100%" x2="100%" y2="0%"><stop offset="30%" stop-color="#d5eae0" stop-opacity="1"></stop><stop offset="70%" stop-color="#abd4c2" stop-opacity="1"></stop></linearGradient></defs><defs><linearGradient id="grad1_5" x1="0%" y1="100%" x2="100%" y2="0%"><stop offset="30%" stop-color="#d5eae0" stop-opacity="1"></stop><stop offset="70%" stop-color="#ffffff" stop-opacity="1"></stop></linearGradient></defs><defs><linearGradient id="grad2_0" x1="0%" y1="100%" x2="100%" y2="0%"><stop offset="30%" stop-color="#00946c" stop-opacity="1"></stop><stop offset="70%" stop-color="#00946c" stop-opacity="1"></stop></linearGradient></defs><defs><linearGradient id="grad2_1" x1="0%" y1="100%" x2="100%" y2="0%"><stop offset="30%" stop-color="#51aa88" stop-opacity="1"></stop><stop offset="70%" stop-color="#00946c" stop-opacity="1"></stop></linearGradient></defs><defs><linearGradient id="grad2_2" x1="0%" y1="100%" x2="100%" y2="0%"><stop offset="30%" stop-color="#51aa88" stop-opacity="1"></stop><stop offset="70%" stop-color="#80bfa4" stop-opacity="1"></stop></linearGradient></defs><defs><linearGradient id="grad2_3" x1="0%" y1="100%" x2="100%" y2="0%"><stop offset="30%" stop-color="#abd4c2" stop-opacity="1"></stop><stop offset="70%" stop-color="#80bfa4" stop-opacity="1"></stop></linearGradient></defs><defs><linearGradient id="grad2_4" x1="0%" y1="100%" x2="100%" y2="0%"><stop offset="30%" stop-color="#abd4c2" stop-opacity="1"></stop><stop offset="70%" stop-color="#d5eae0" stop-opacity="1"></stop></linearGradient></defs><defs><linearGradient id="grad2_5" x1="0%" y1="100%" x2="100%" y2="0%"><stop offset="30%" stop-color="#ffffff" stop-opacity="1"></stop><stop offset="70%" stop-color="#d5eae0" stop-opacity="1"></stop></linearGradient></defs><g transform="translate(700, 1200)"><path d="M-590.4 0C-571.2 -71.7 -552 -143.3 -527.5 -218.5C-503.1 -293.7 -473.3 -372.5 -417.5 -417.5C-361.7 -462.5 -279.8 -473.8 -205.9 -497C-132 -520.2 -66 -555.3 0 -590.4L0 0Z" fill="#eaf4ef"></path><path d="M-492 0C-476 -59.7 -460 -119.4 -439.6 -182.1C-419.2 -244.8 -394.4 -310.4 -347.9 -347.9C-301.4 -385.4 -233.2 -394.9 -171.6 -414.2C-110 -433.5 -55 -462.8 0 -492L0 0Z" fill="#c0dfd1"></path><path d="M-393.6 0C-380.8 -47.8 -368 -95.5 -351.7 -145.7C-335.4 -195.8 -315.5 -248.3 -278.3 -278.3C-241.1 -308.4 -186.5 -315.9 -137.3 -331.4C-88 -346.8 -44 -370.2 0 -393.6L0 0Z" fill="#95cab3"></path><path d="M-295.2 0C-285.6 -35.8 -276 -71.7 -263.8 -109.3C-251.5 -146.9 -236.7 -186.2 -208.7 -208.7C-180.8 -231.3 -139.9 -236.9 -102.9 -248.5C-66 -260.1 -33 -277.7 0 -295.2L0 0Z" fill="#69b496"></path><path d="M-196.8 0C-190.4 -23.9 -184 -47.8 -175.8 -72.8C-167.7 -97.9 -157.8 -124.2 -139.2 -139.2C-120.6 -154.2 -93.3 -157.9 -68.6 -165.7C-44 -173.4 -22 -185.1 0 -196.8L0 0Z" fill="#359f7a"></path><path d="M-98.4 0C-95.2 -11.9 -92 -23.9 -87.9 -36.4C-83.8 -49 -78.9 -62.1 -69.6 -69.6C-60.3 -77.1 -46.6 -79 -34.3 -82.8C-22 -86.7 -11 -92.6 0 -98.4L0 0Z" fill="#00946c"></path></g><g transform="translate(0, 0)"><path d="M590.4 0C567.9 74 545.4 148 512.8 212.4C480.1 276.8 437.4 331.7 390.3 390.3C343.2 449 291.7 511.5 225.9 545.5C160.2 579.5 80.1 585 0 590.4L0 0Z" fill="#eaf4ef"></path><path d="M492 0C473.3 61.7 454.5 123.3 427.3 177C400.1 230.7 364.5 276.4 325.3 325.3C286 374.2 243.1 426.2 188.3 454.6C133.5 482.9 66.7 487.5 0 492L0 0Z" fill="#c0dfd1"></path><path d="M393.6 0C378.6 49.3 363.6 98.6 341.8 141.6C320.1 184.5 291.6 221.1 260.2 260.2C228.8 299.3 194.5 341 150.6 363.7C106.8 386.3 53.4 390 0 393.6L0 0Z" fill="#95cab3"></path><path d="M295.2 0C284 37 272.7 74 256.4 106.2C240.1 138.4 218.7 165.8 195.2 195.2C171.6 224.5 145.9 255.7 113 272.7C80.1 289.7 40 292.5 0 295.2L0 0Z" fill="#69b496"></path><path d="M196.8 0C189.3 24.7 181.8 49.3 170.9 70.8C160 92.3 145.8 110.6 130.1 130.1C114.4 149.7 97.2 170.5 75.3 181.8C53.4 193.2 26.7 195 0 196.8L0 0Z" fill="#359f7a"></path><path d="M98.4 0C94.7 12.3 90.9 24.7 85.5 35.4C80 46.1 72.9 55.3 65.1 65.1C57.2 74.8 48.6 85.2 37.7 90.9C26.7 96.6 13.3 97.5 0 98.4L0 0Z" fill="#00946c"></path></g></svg>