<svg id="visual" viewBox="0 0 700 1200" width="700" height="1200" xmlns="http://www.w3.org/2000/svg" xmlns:xlink="http://www.w3.org/1999/xlink" version="1.1"><rect x="0" y="0" width="700" height="1200" fill="#000000"></rect><path d="M0 856L16.7 851C33.3 846 66.7 836 100 831.7C133.3 827.3 166.7 828.7 200 842.3C233.3 856 266.7 882 300 890.8C333.3 899.7 366.7 891.3 400 882.7C433.3 874 466.7 865 500 865.7C533.3 866.3 566.7 876.7 600 882.8C633.3 889 666.7 891 683.3 892L700 893L700 1201L683.3 1201C666.7 1201 633.3 1201 600 1201C566.7 1201 533.3 1201 500 1201C466.7 1201 433.3 1201 400 1201C366.7 1201 333.3 1201 300 1201C266.7 1201 233.3 1201 200 1201C166.7 1201 133.3 1201 100 1201C66.7 1201 33.3 1201 16.7 1201L0 1201Z" fill="#c62368"></path><path d="M0 876L16.7 886.8C33.3 897.7 66.7 919.3 100 923.2C133.3 927 166.7 913 200 914.3C233.3 915.7 266.7 932.3 300 939.5C333.3 946.7 366.7 944.3 400 944.3C433.3 944.3 466.7 946.7 500 942.5C533.3 938.3 566.7 927.7 600 927.8C633.3 928 666.7 939 683.3 944.5L700 950L700 1201L683.3 1201C666.7 1201 633.3 1201 600 1201C566.7 1201 533.3 1201 500 1201C466.7 1201 433.3 1201 400 1201C366.7 1201 333.3 1201 300 1201C266.7 1201 233.3 1201 200 1201C166.7 1201 133.3 1201 100 1201C66.7 1201 33.3 1201 16.7 1201L0 1201Z" fill="#df4667"></path><path d="M0 941L16.7 949.3C33.3 957.7 66.7 974.3 100 975.2C133.3 976 166.7 961 200 954C233.3 947 266.7 948 300 954.8C333.3 961.7 366.7 974.3 400 981.2C433.3 988 466.7 989 500 981.5C533.3 974 566.7 958 600 957.3C633.3 956.7 666.7 971.3 683.3 978.7L700 986L700 1201L683.3 1201C666.7 1201 633.3 1201 600 1201C566.7 1201 533.3 1201 500 1201C466.7 1201 433.3 1201 400 1201C366.7 1201 333.3 1201 300 1201C266.7 1201 233.3 1201 200 1201C166.7 1201 133.3 1201 100 1201C66.7 1201 33.3 1201 16.7 1201L0 1201Z" fill="#f36567"></path><path d="M0 987L16.7 988.8C33.3 990.7 66.7 994.3 100 998.7C133.3 1003 166.7 1008 200 1009C233.3 1010 266.7 1007 300 1007.3C333.3 1007.7 366.7 1011.3 400 1010C433.3 1008.7 466.7 1002.3 500 999.2C533.3 996 566.7 996 600 1000.3C633.3 1004.7 666.7 1013.3 683.3 1017.7L700 1022L700 1201L683.3 1201C666.7 1201 633.3 1201 600 1201C566.7 1201 533.3 1201 500 1201C466.7 1201 433.3 1201 400 1201C366.7 1201 333.3 1201 300 1201C266.7 1201 233.3 1201 200 1201C166.7 1201 133.3 1201 100 1201C66.7 1201 33.3 1201 16.7 1201L0 1201Z" fill="#fa7268"></path><path d="M0 1054L16.7 1057.5C33.3 1061 66.7 1068 100 1065C133.3 1062 166.7 1049 200 1040.8C233.3 1032.7 266.7 1029.3 300 1032.7C333.3 1036 366.7 1046 400 1053C433.3 1060 466.7 1064 500 1062.7C533.3 1061.3 566.7 1054.7 600 1047.2C633.3 1039.7 666.7 1031.3 683.3 1027.2L700 1023L700 1201L683.3 1201C666.7 1201 633.3 1201 600 1201C566.7 1201 533.3 1201 500 1201C466.7 1201 433.3 1201 400 1201C366.7 1201 333.3 1201 300 1201C266.7 1201 233.3 1201 200 1201C166.7 1201 133.3 1201 100 1201C66.7 1201 33.3 1201 16.7 1201L0 1201Z" fill="#f36567"></path><path d="M0 1108L16.7 1103.3C33.3 1098.7 66.7 1089.3 100 1085.5C133.3 1081.7 166.7 1083.3 200 1087.2C233.3 1091 266.7 1097 300 1098.5C333.3 1100 366.7 1097 400 1099C433.3 1101 466.7 1108 500 1104.5C533.3 1101 566.7 1087 600 1080.3C633.3 1073.7 666.7 1074.3 683.3 1074.7L700 1075L700 1201L683.3 1201C666.7 1201 633.3 1201 600 1201C566.7 1201 533.3 1201 500 1201C466.7 1201 433.3 1201 400 1201C366.7 1201 333.3 1201 300 1201C266.7 1201 233.3 1201 200 1201C166.7 1201 133.3 1201 100 1201C66.7 1201 33.3 1201 16.7 1201L0 1201Z" fill="#df4667"></path><path d="M0 1155L16.7 1150.5C33.3 1146 66.7 1137 100 1134.3C133.3 1131.7 166.7 1135.3 200 1140.2C233.3 1145 266.7 1151 300 1148.2C333.3 1145.3 366.7 1133.7 400 1128.3C433.3 1123 466.7 1124 500 1124.7C533.3 1125.3 566.7 1125.7 600 1130.3C633.3 1135 666.7 1144 683.3 1148.5L700 1153L700 1201L683.3 1201C666.7 1201 633.3 1201 600 1201C566.7 1201 533.3 1201 500 1201C466.7 1201 433.3 1201 400 1201C366.7 1201 333.3 1201 300 1201C266.7 1201 233.3 1201 200 1201C166.7 1201 133.3 1201 100 1201C66.7 1201 33.3 1201 16.7 1201L0 1201Z" fill="#c62368"></path></svg>