<svg id="visual" viewBox="0 0 700 1200" width="700" height="1200" xmlns="http://www.w3.org/2000/svg" xmlns:xlink="http://www.w3.org/1999/xlink" version="1.1"><path d="M0 61L10.7 69C21.3 77 42.7 93 63.8 97C85 101 106 93 127.2 83C148.3 73 169.7 61 191 73C212.3 85 233.7 121 254.8 133C276 145 297 133 318.2 127C339.3 121 360.7 121 381.8 119C403 117 424 113 445.2 117C466.3 121 487.7 133 509 127C530.3 121 551.7 97 572.8 89C594 81 615 89 636.2 87C657.3 85 678.7 73 689.3 67L700 61L700 0L689.3 0C678.7 0 657.3 0 636.2 0C615 0 594 0 572.8 0C551.7 0 530.3 0 509 0C487.7 0 466.3 0 445.2 0C424 0 403 0 381.8 0C360.7 0 339.3 0 318.2 0C297 0 276 0 254.8 0C233.7 0 212.3 0 191 0C169.7 0 148.3 0 127.2 0C106 0 85 0 63.8 0C42.7 0 21.3 0 10.7 0L0 0Z" fill="#81e5fd"></path><path d="M0 277L10.7 291C21.3 305 42.7 333 63.8 347C85 361 106 361 127.2 333C148.3 305 169.7 249 191 235C212.3 221 233.7 249 254.8 277C276 305 297 333 318.2 353C339.3 373 360.7 385 381.8 365C403 345 424 293 445.2 289C466.3 285 487.7 329 509 337C530.3 345 551.7 317 572.8 303C594 289 615 289 636.2 273C657.3 257 678.7 225 689.3 209L700 193L700 59L689.3 65C678.7 71 657.3 83 636.2 85C615 87 594 79 572.8 87C551.7 95 530.3 119 509 125C487.7 131 466.3 119 445.2 115C424 111 403 115 381.8 117C360.7 119 339.3 119 318.2 125C297 131 276 143 254.8 131C233.7 119 212.3 83 191 71C169.7 59 148.3 71 127.2 81C106 91 85 99 63.8 95C42.7 91 21.3 75 10.7 67L0 59Z" fill="#69e1fd"></path><path d="M0 493L10.7 507C21.3 521 42.7 549 63.8 587C85 625 106 673 127.2 675C148.3 677 169.7 633 191 631C212.3 629 233.7 669 254.8 671C276 673 297 637 318.2 615C339.3 593 360.7 585 381.8 583C403 581 424 585 445.2 593C466.3 601 487.7 613 509 633C530.3 653 551.7 681 572.8 655C594 629 615 549 636.2 531C657.3 513 678.7 557 689.3 579L700 601L700 191L689.3 207C678.7 223 657.3 255 636.2 271C615 287 594 287 572.8 301C551.7 315 530.3 343 509 335C487.7 327 466.3 283 445.2 287C424 291 403 343 381.8 363C360.7 383 339.3 371 318.2 351C297 331 276 303 254.8 275C233.7 247 212.3 219 191 233C169.7 247 148.3 303 127.2 331C106 359 85 359 63.8 345C42.7 331 21.3 303 10.7 289L0 275Z" fill="#49dcfe"></path><path d="M0 625L10.7 631C21.3 637 42.7 649 63.8 689C85 729 106 797 127.2 805C148.3 813 169.7 761 191 759C212.3 757 233.7 805 254.8 813C276 821 297 789 318.2 753C339.3 717 360.7 677 381.8 677C403 677 424 717 445.2 743C466.3 769 487.7 781 509 789C530.3 797 551.7 801 572.8 767C594 733 615 661 636.2 655C657.3 649 678.7 709 689.3 739L700 769L700 599L689.3 577C678.7 555 657.3 511 636.2 529C615 547 594 627 572.8 653C551.7 679 530.3 651 509 631C487.7 611 466.3 599 445.2 591C424 583 403 579 381.8 581C360.7 583 339.3 591 318.2 613C297 635 276 671 254.8 669C233.7 667 212.3 627 191 629C169.7 631 148.3 675 127.2 673C106 671 85 623 63.8 585C42.7 547 21.3 519 10.7 505L0 491Z" fill="#00d8ff"></path><path d="M0 793L10.7 795C21.3 797 42.7 801 63.8 839C85 877 106 949 127.2 965C148.3 981 169.7 941 191 927C212.3 913 233.7 925 254.8 929C276 933 297 929 318.2 897C339.3 865 360.7 805 381.8 787C403 769 424 793 445.2 823C466.3 853 487.7 889 509 913C530.3 937 551.7 949 572.8 923C594 897 615 833 636.2 813C657.3 793 678.7 817 689.3 829L700 841L700 767L689.3 737C678.7 707 657.3 647 636.2 653C615 659 594 731 572.8 765C551.7 799 530.3 795 509 787C487.7 779 466.3 767 445.2 741C424 715 403 675 381.8 675C360.7 675 339.3 715 318.2 751C297 787 276 819 254.8 811C233.7 803 212.3 755 191 757C169.7 759 148.3 811 127.2 803C106 795 85 727 63.8 687C42.7 647 21.3 635 10.7 629L0 623Z" fill="#00c4e7"></path><path d="M0 1117L10.7 1115C21.3 1113 42.7 1109 63.8 1115C85 1121 106 1137 127.2 1139C148.3 1141 169.7 1129 191 1125C212.3 1121 233.7 1125 254.8 1131C276 1137 297 1145 318.2 1141C339.3 1137 360.7 1121 381.8 1107C403 1093 424 1081 445.2 1081C466.3 1081 487.7 1093 509 1101C530.3 1109 551.7 1113 572.8 1115C594 1117 615 1117 636.2 1117C657.3 1117 678.7 1117 689.3 1117L700 1117L700 839L689.3 827C678.7 815 657.3 791 636.2 811C615 831 594 895 572.8 921C551.7 947 530.3 935 509 911C487.7 887 466.3 851 445.2 821C424 791 403 767 381.8 785C360.7 803 339.3 863 318.2 895C297 927 276 931 254.8 927C233.7 923 212.3 911 191 925C169.7 939 148.3 979 127.2 963C106 947 85 875 63.8 837C42.7 799 21.3 795 10.7 793L0 791Z" fill="#00b1d0"></path><path d="M0 1201L10.7 1201C21.3 1201 42.7 1201 63.8 1201C85 1201 106 1201 127.2 1201C148.3 1201 169.7 1201 191 1201C212.3 1201 233.7 1201 254.8 1201C276 1201 297 1201 318.2 1201C339.3 1201 360.7 1201 381.8 1201C403 1201 424 1201 445.2 1201C466.3 1201 487.7 1201 509 1201C530.3 1201 551.7 1201 572.8 1201C594 1201 615 1201 636.2 1201C657.3 1201 678.7 1201 689.3 1201L700 1201L700 1115L689.3 1115C678.7 1115 657.3 1115 636.2 1115C615 1115 594 1115 572.8 1113C551.7 1111 530.3 1107 509 1099C487.7 1091 466.3 1079 445.2 1079C424 1079 403 1091 381.8 1105C360.7 1119 339.3 1135 318.2 1139C297 1143 276 1135 254.8 1129C233.7 1123 212.3 1119 191 1123C169.7 1127 148.3 1139 127.2 1137C106 1135 85 1119 63.8 1113C42.7 1107 21.3 1111 10.7 1113L0 1115Z" fill="#009eba"></path></svg>